# Blender 5.1.2
# www.blender.org
mtllib wear_none.mtl
o wear_none
v 0.000000 1.000000 0.000000
v 0.000000 0.831470 -0.555570
v 0.000000 0.555570 -0.831470
v 0.000000 0.195090 -0.980785
v 0.000000 0.000000 -1.000000
v 0.000000 -0.195090 -0.980785
v 0.000000 -0.555570 -0.831470
v 0.000000 -1.000000 0.000000
v 0.038060 0.980785 -0.191342
v 0.074658 0.923880 -0.375330
v 0.108386 0.831470 -0.544895
v 0.137950 0.707107 -0.693520
v 0.162212 0.555570 -0.815493
v 0.180240 0.382683 -0.906127
v 0.191342 0.195090 -0.961940
v 0.195090 0.000000 -0.980785
v 0.191342 -0.195090 -0.961940
v 0.180240 -0.382683 -0.906127
v 0.162212 -0.555570 -0.815493
v 0.137950 -0.707107 -0.693520
v 0.108386 -0.831470 -0.544895
v 0.074658 -0.923880 -0.375330
v 0.038060 -0.980785 -0.191342
v 0.074658 0.980785 -0.180240
v 0.146447 0.923880 -0.353553
v 0.212608 0.831470 -0.513280
v 0.270598 0.707107 -0.653281
v 0.318190 0.555570 -0.768178
v 0.353553 0.382683 -0.853553
v 0.375330 0.195090 -0.906127
v 0.382683 0.000000 -0.923879
v 0.375330 -0.195090 -0.906127
v 0.353553 -0.382683 -0.853553
v 0.318190 -0.555570 -0.768178
v 0.270598 -0.707107 -0.653281
v 0.212608 -0.831470 -0.513280
v 0.146447 -0.923880 -0.353553
v 0.074658 -0.980785 -0.180240
v 0.108386 0.980785 -0.162212
v 0.212608 0.923880 -0.318190
v 0.308658 0.831470 -0.461940
v 0.392847 0.707107 -0.587938
v 0.461940 0.555570 -0.691342
v 0.513280 0.382683 -0.768178
v 0.544895 0.195090 -0.815493
v 0.555570 0.000000 -0.831469
v 0.544895 -0.195090 -0.815493
v 0.513280 -0.382683 -0.768178
v 0.461940 -0.555570 -0.691342
v 0.392847 -0.707107 -0.587938
v 0.308658 -0.831470 -0.461940
v 0.212608 -0.923880 -0.318190
v 0.108386 -0.980785 -0.162212
v 0.137950 0.980785 -0.137950
v 0.270598 0.923880 -0.270598
v 0.392847 0.831470 -0.392847
v 0.500000 0.707107 -0.500000
v 0.587938 0.555570 -0.587938
v 0.653281 0.382683 -0.653281
v 0.693520 0.195090 -0.693520
v 0.707107 0.000000 -0.707107
v 0.693520 -0.195090 -0.693520
v 0.653281 -0.382683 -0.653281
v 0.587938 -0.555570 -0.587938
v 0.500000 -0.707107 -0.500000
v 0.392847 -0.831470 -0.392847
v 0.270598 -0.923880 -0.270598
v 0.137950 -0.980785 -0.137950
v 0.162212 0.980785 -0.108386
v 0.318190 0.923880 -0.212608
v 0.461940 0.831470 -0.308658
v 0.587938 0.707107 -0.392847
v 0.691342 0.555570 -0.461940
v 0.768178 0.382683 -0.513280
v 0.815493 0.195090 -0.544895
v 0.831470 0.000000 -0.555570
v 0.815493 -0.195090 -0.544895
v 0.768178 -0.382683 -0.513280
v 0.691342 -0.555570 -0.461940
v 0.587938 -0.707107 -0.392847
v 0.461940 -0.831470 -0.308658
v 0.318190 -0.923880 -0.212608
v 0.162212 -0.980785 -0.108386
v 0.180240 0.980785 -0.074658
v 0.353553 0.923880 -0.146447
v 0.513280 0.831470 -0.212607
v 0.653281 0.707107 -0.270598
v 0.768178 0.555570 -0.318190
v 0.853553 0.382683 -0.353553
v 0.906127 0.195090 -0.375330
v 0.923879 0.000000 -0.382683
v 0.906127 -0.195090 -0.375330
v 0.853553 -0.382683 -0.353553
v 0.768178 -0.555570 -0.318190
v 0.653281 -0.707107 -0.270598
v 0.513280 -0.831470 -0.212607
v 0.353553 -0.923880 -0.146447
v 0.180240 -0.980785 -0.074658
v 0.191342 0.980785 -0.038060
v 0.375330 0.923880 -0.074658
v 0.544895 0.831470 -0.108386
v 0.693520 0.707107 -0.137950
v 0.815493 0.555570 -0.162212
v 0.906127 0.382683 -0.180240
v 0.961940 0.195090 -0.191342
v 0.980785 0.000000 -0.195090
v 0.961940 -0.195090 -0.191342
v 0.906127 -0.382683 -0.180240
v 0.815493 -0.555570 -0.162212
v 0.693520 -0.707107 -0.137950
v 0.544895 -0.831470 -0.108386
v 0.375330 -0.923880 -0.074658
v 0.191342 -0.980785 -0.038060
v 0.195090 0.980785 0.000000
v 0.382683 0.923880 0.000000
v 0.555570 0.831470 0.000000
v 0.707107 0.707107 -0.000000
v 0.831469 0.555570 0.000000
v 0.923879 0.382683 -0.000000
v 0.980785 0.195090 0.000000
v 1.000000 0.000000 0.000000
v 0.980785 -0.195090 0.000000
v 0.923879 -0.382683 -0.000000
v 0.831469 -0.555570 0.000000
v 0.707107 -0.707107 -0.000000
v 0.555570 -0.831470 0.000000
v 0.382683 -0.923880 0.000000
v 0.195090 -0.980785 0.000000
v 0.191342 0.980785 0.038060
v 0.375330 0.923880 0.074658
v 0.544895 0.831470 0.108386
v 0.693520 0.707107 0.137950
v 0.815493 0.555570 0.162212
v 0.906127 0.382683 0.180240
v 0.961940 0.195090 0.191342
v 0.980785 0.000000 0.195090
v 0.961940 -0.195090 0.191342
v 0.906127 -0.382683 0.180240
v 0.815493 -0.555570 0.162212
v 0.693520 -0.707107 0.137950
v 0.544895 -0.831470 0.108386
v 0.375330 -0.923880 0.074658
v 0.191342 -0.980785 0.038060
v 0.180240 0.980785 0.074658
v 0.353553 0.923880 0.146447
v 0.513280 0.831470 0.212608
v 0.653281 0.707107 0.270598
v 0.768178 0.555570 0.318190
v 0.853553 0.382683 0.353553
v 0.906127 0.195090 0.375330
v 0.923879 0.000000 0.382683
v 0.906127 -0.195090 0.375330
v 0.853553 -0.382683 0.353553
v 0.768178 -0.555570 0.318190
v 0.653281 -0.707107 0.270598
v 0.513280 -0.831470 0.212608
v 0.353553 -0.923880 0.146447
v 0.180240 -0.980785 0.074658
v 0.162212 0.980785 0.108386
v 0.318190 0.923880 0.212608
v 0.461940 0.831470 0.308658
v 0.587938 0.707107 0.392847
v 0.691341 0.555570 0.461940
v 0.768178 0.382683 0.513280
v 0.815493 0.195090 0.544895
v 0.831469 0.000000 0.555570
v 0.815493 -0.195090 0.544895
v 0.768178 -0.382683 0.513280
v 0.691341 -0.555570 0.461940
v 0.587938 -0.707107 0.392847
v 0.461940 -0.831470 0.308658
v 0.318190 -0.923880 0.212608
v 0.162212 -0.980785 0.108386
v 0.137950 0.980785 0.137950
v 0.270598 0.923880 0.270598
v 0.392847 0.831470 0.392847
v 0.500000 0.707107 0.500000
v 0.587938 0.555570 0.587938
v 0.653281 0.382683 0.653281
v 0.693520 0.195090 0.693520
v 0.707106 0.000000 0.707107
v 0.693520 -0.195090 0.693520
v 0.653281 -0.382683 0.653281
v 0.587938 -0.555570 0.587938
v 0.500000 -0.707107 0.500000
v 0.392847 -0.831470 0.392847
v 0.270598 -0.923880 0.270598
v 0.137950 -0.980785 0.137950
v 0.108386 0.980785 0.162212
v 0.212607 0.923880 0.318190
v 0.308658 0.831470 0.461940
v 0.392847 0.707107 0.587938
v 0.461940 0.555570 0.691342
v 0.513280 0.382683 0.768178
v 0.544895 0.195090 0.815493
v 0.555570 0.000000 0.831469
v 0.544895 -0.195090 0.815493
v 0.513280 -0.382683 0.768178
v 0.461940 -0.555570 0.691342
v 0.392847 -0.707107 0.587938
v 0.308658 -0.831470 0.461940
v 0.212607 -0.923880 0.318190
v 0.108386 -0.980785 0.162212
v 0.074658 0.980785 0.180240
v 0.146447 0.923880 0.353553
v 0.212607 0.831470 0.513280
v 0.270598 0.707107 0.653281
v 0.318189 0.555570 0.768178
v 0.353553 0.382683 0.853553
v 0.375330 0.195090 0.906127
v 0.382683 0.000000 0.923879
v 0.375330 -0.195090 0.906127
v 0.353553 -0.382683 0.853553
v 0.318189 -0.555570 0.768178
v 0.270598 -0.707107 0.653281
v 0.212607 -0.831470 0.513280
v 0.146447 -0.923880 0.353553
v 0.074658 -0.980785 0.180240
v 0.038060 0.980785 0.191342
v 0.074658 0.923880 0.375330
v 0.108386 0.831470 0.544895
v 0.137950 0.707107 0.693520
v 0.162212 0.555570 0.815493
v 0.180240 0.382683 0.906127
v 0.191342 0.195090 0.961939
v 0.195090 0.000000 0.980785
v 0.191342 -0.195090 0.961939
v 0.180240 -0.382683 0.906127
v 0.162212 -0.555570 0.815493
v 0.137950 -0.707107 0.693520
v 0.108386 -0.831470 0.544895
v 0.074658 -0.923880 0.375330
v 0.038060 -0.980785 0.191342
v -0.000000 0.980785 0.195090
v -0.000000 0.923880 0.382683
v -0.000000 0.831470 0.555570
v -0.000000 0.707107 0.707107
v -0.000000 0.555570 0.831469
v 0.000000 0.382683 0.923879
v -0.000000 0.195090 0.980785
v -0.000000 0.000000 0.999999
v -0.000000 -0.195090 0.980785
v 0.000000 -0.382683 0.923879
v -0.000000 -0.555570 0.831469
v -0.000000 -0.707107 0.707107
v -0.000000 -0.831470 0.555570
v -0.000000 -0.923880 0.382683
v -0.000000 -0.980785 0.195090
v -0.038060 0.980785 0.191342
v -0.074658 0.923880 0.375330
v -0.108386 0.831470 0.544895
v -0.137950 0.707107 0.693520
v -0.162212 0.555570 0.815493
v -0.180240 0.382683 0.906127
v -0.191342 0.195090 0.961939
v -0.195091 0.000000 0.980785
v -0.191342 -0.195090 0.961939
v -0.180240 -0.382683 0.906127
v -0.162212 -0.555570 0.815493
v -0.137950 -0.707107 0.693520
v -0.108386 -0.831470 0.544895
v -0.074658 -0.923880 0.375330
v -0.038060 -0.980785 0.191342
v -0.074658 0.980785 0.180240
v -0.146447 0.923880 0.353553
v -0.212608 0.831470 0.513280
v -0.270598 0.707107 0.653281
v -0.318190 0.555570 0.768177
v -0.353553 0.382683 0.853553
v -0.375330 0.195090 0.906127
v -0.382683 0.000000 0.923879
v -0.375330 -0.195090 0.906127
v -0.353553 -0.382683 0.853553
v -0.318190 -0.555570 0.768177
v -0.270598 -0.707107 0.653281
v -0.212608 -0.831470 0.513280
v -0.146447 -0.923880 0.353553
v -0.074658 -0.980785 0.180240
v -0.108386 0.980785 0.162212
v -0.212608 0.923880 0.318190
v -0.308658 0.831470 0.461939
v -0.392847 0.707107 0.587938
v -0.461940 0.555570 0.691341
v -0.513280 0.382683 0.768178
v -0.544895 0.195090 0.815493
v -0.555570 0.000000 0.831469
v -0.544895 -0.195090 0.815493
v -0.513280 -0.382683 0.768178
v -0.461940 -0.555570 0.691341
v -0.392847 -0.707107 0.587938
v -0.308658 -0.831470 0.461939
v -0.212608 -0.923880 0.318190
v -0.108386 -0.980785 0.162212
v -0.137950 0.980785 0.137950
v -0.270598 0.923880 0.270598
v -0.392847 0.831470 0.392847
v -0.500000 0.707107 0.500000
v -0.587938 0.555570 0.587937
v -0.653281 0.382683 0.653281
v -0.693520 0.195090 0.693520
v -0.707106 0.000000 0.707106
v -0.693520 -0.195090 0.693520
v -0.653281 -0.382683 0.653281
v -0.587938 -0.555570 0.587937
v -0.500000 -0.707107 0.500000
v -0.392847 -0.831470 0.392847
v -0.270598 -0.923880 0.270598
v -0.137950 -0.980785 0.137950
v -0.162212 0.980785 0.108386
v -0.318190 0.923880 0.212607
v -0.461940 0.831470 0.308658
v -0.587938 0.707107 0.392847
v -0.691341 0.555570 0.461939
v -0.768177 0.382683 0.513280
v -0.815493 0.195090 0.544895
v -0.831469 0.000000 0.555569
v -0.815493 -0.195090 0.544895
v -0.768177 -0.382683 0.513280
v -0.691341 -0.555570 0.461939
v -0.587938 -0.707107 0.392847
v -0.461940 -0.831470 0.308658
v -0.318190 -0.923880 0.212607
v -0.162212 -0.980785 0.108386
v -0.180240 0.980785 0.074658
v -0.353553 0.923880 0.146447
v -0.513280 0.831470 0.212607
v -0.653281 0.707107 0.270598
v -0.768177 0.555570 0.318189
v -0.853553 0.382683 0.353553
v -0.906127 0.195090 0.375330
v -0.923879 0.000000 0.382683
v -0.906127 -0.195090 0.375330
v -0.853553 -0.382683 0.353553
v -0.768177 -0.555570 0.318189
v -0.653281 -0.707107 0.270598
v -0.513280 -0.831470 0.212607
v -0.353553 -0.923880 0.146447
v -0.180240 -0.980785 0.074658
v -0.191342 0.980785 0.038060
v -0.375330 0.923880 0.074658
v -0.544895 0.831470 0.108386
v -0.693520 0.707107 0.137950
v -0.815493 0.555570 0.162211
v -0.906127 0.382683 0.180240
v -0.961939 0.195090 0.191341
v -0.980784 0.000000 0.195090
v -0.961939 -0.195090 0.191341
v -0.906127 -0.382683 0.180240
v -0.815493 -0.555570 0.162211
v -0.693520 -0.707107 0.137950
v -0.544895 -0.831470 0.108386
v -0.375330 -0.923880 0.074658
v -0.191342 -0.980785 0.038060
v -0.195090 0.980785 -0.000000
v -0.382683 0.923880 -0.000000
v -0.555570 0.831470 -0.000000
v -0.707107 0.707107 -0.000000
v -0.831469 0.555570 -0.000000
v -0.923879 0.382683 -0.000000
v -0.980785 0.195090 -0.000000
v -0.999999 0.000000 -0.000000
v -0.980785 -0.195090 -0.000000
v -0.923879 -0.382683 -0.000000
v -0.831469 -0.555570 -0.000000
v -0.707107 -0.707107 -0.000000
v -0.555570 -0.831470 -0.000000
v -0.382683 -0.923880 -0.000000
v -0.195090 -0.980785 -0.000000
v -0.191342 0.980785 -0.038060
v -0.375330 0.923880 -0.074658
v -0.544895 0.831470 -0.108386
v -0.693520 0.707107 -0.137950
v -0.815493 0.555570 -0.162212
v -0.906127 0.382683 -0.180240
v -0.961939 0.195090 -0.191342
v -0.980784 0.000000 -0.195091
v -0.961939 -0.195090 -0.191342
v -0.906127 -0.382683 -0.180240
v -0.815493 -0.555570 -0.162212
v -0.693520 -0.707107 -0.137950
v -0.544895 -0.831470 -0.108386
v -0.375330 -0.923880 -0.074658
v -0.191342 -0.980785 -0.038060
v -0.180240 0.980785 -0.074658
v -0.353553 0.923880 -0.146447
v -0.513279 0.831470 -0.212607
v -0.653281 0.707107 -0.270598
v -0.768177 0.555570 -0.318190
v -0.853553 0.382683 -0.353553
v -0.906127 0.195090 -0.375330
v -0.923878 0.000000 -0.382683
v -0.906127 -0.195090 -0.375330
v -0.853553 -0.382683 -0.353553
v -0.768177 -0.555570 -0.318190
v -0.653281 -0.707107 -0.270598
v -0.513279 -0.831470 -0.212607
v -0.353553 -0.923880 -0.146447
v -0.180240 -0.980785 -0.074658
v -0.162212 0.980785 -0.108386
v -0.318189 0.923880 -0.212607
v -0.461939 0.831470 -0.308658
v -0.587938 0.707107 -0.392847
v -0.691341 0.555570 -0.461940
v -0.768177 0.382683 -0.513280
v -0.815493 0.195090 -0.544895
v -0.831468 0.000000 -0.555570
v -0.815493 -0.195090 -0.544895
v -0.768177 -0.382683 -0.513280
v -0.691341 -0.555570 -0.461940
v -0.587938 -0.707107 -0.392847
v -0.461939 -0.831470 -0.308658
v -0.318189 -0.923880 -0.212607
v -0.162212 -0.980785 -0.108386
v -0.137950 0.980785 -0.137950
v -0.270598 0.923880 -0.270598
v -0.392847 0.831470 -0.392847
v -0.500000 0.707107 -0.500000
v -0.587937 0.555570 -0.587938
v -0.653281 0.382683 -0.653281
v -0.693519 0.195090 -0.693520
v -0.707106 0.000000 -0.707106
v -0.693519 -0.195090 -0.693520
v -0.653281 -0.382683 -0.653281
v -0.587937 -0.555570 -0.587938
v -0.500000 -0.707107 -0.500000
v -0.392847 -0.831470 -0.392847
v -0.270598 -0.923880 -0.270598
v -0.137950 -0.980785 -0.137950
v -0.108386 0.980785 -0.162212
v -0.212607 0.923880 -0.318190
v -0.308658 0.831470 -0.461939
v -0.392847 0.707107 -0.587938
v -0.461939 0.555570 -0.691341
v -0.513280 0.382683 -0.768177
v -0.544895 0.195090 -0.815493
v -0.555569 0.000000 -0.831469
v -0.544895 -0.195090 -0.815493
v -0.513280 -0.382683 -0.768177
v -0.461939 -0.555570 -0.691341
v -0.392847 -0.707107 -0.587938
v -0.308658 -0.831470 -0.461939
v -0.212607 -0.923880 -0.318190
v -0.108386 -0.980785 -0.162212
v -0.074658 0.980785 -0.180240
v -0.146446 0.923880 -0.353553
v -0.212607 0.831470 -0.513279
v -0.270598 0.707107 -0.653281
v -0.318189 0.555570 -0.768177
v -0.353553 0.382683 -0.853553
v -0.375330 0.195090 -0.906127
v -0.382683 0.000000 -0.923879
v -0.375330 -0.195090 -0.906127
v -0.353553 -0.382683 -0.853553
v -0.318189 -0.555570 -0.768177
v -0.270598 -0.707107 -0.653281
v -0.212607 -0.831470 -0.513279
v -0.146446 -0.923880 -0.353553
v -0.074658 -0.980785 -0.180240
v -0.038060 0.980785 -0.191342
v -0.074658 0.923880 -0.375330
v -0.108386 0.831470 -0.544895
v -0.137950 0.707107 -0.693520
v -0.162211 0.555570 -0.815493
v -0.180240 0.382683 -0.906127
v -0.191341 0.195090 -0.961939
v -0.195090 0.000000 -0.980784
v -0.191341 -0.195090 -0.961939
v -0.180240 -0.382683 -0.906127
v -0.162211 -0.555570 -0.815493
v -0.137950 -0.707107 -0.693520
v -0.108386 -0.831470 -0.544895
v -0.074658 -0.923880 -0.375330
v -0.038060 -0.980785 -0.191342
v 0.000000 0.980785 -0.195090
v 0.000000 0.923880 -0.382683
v 0.000000 0.707107 -0.707107
v 0.000000 0.382683 -0.923879
v 0.000000 -0.382683 -0.923879
v 0.000000 -0.707107 -0.707107
v 0.000000 -0.831470 -0.555570
v 0.000000 -0.923880 -0.382683
v 0.000000 -0.980785 -0.195090
v -0.581260 -0.262780 1.073478
v -0.581260 0.262780 1.073478
v -0.581260 -0.262780 0.568734
v -0.581260 0.262780 0.568734
v 0.581260 -0.262780 1.073478
v 0.581260 0.262780 1.073478
v 0.581260 -0.262780 0.568734
v 0.581260 0.262780 0.568734
vn -0.0000 0.7041 -0.7101
vn -0.0000 0.8286 -0.5598
vn 0.1092 0.8286 -0.5490
vn 0.1385 0.7041 -0.6965
vn -0.0000 -0.7041 -0.7101
vn -0.0000 -0.5528 -0.8333
vn 0.1626 -0.5528 -0.8173
vn 0.1385 -0.7041 -0.6965
vn -0.0000 0.5528 -0.8333
vn 0.1626 0.5528 -0.8173
vn -0.0000 -0.8286 -0.5598
vn 0.1092 -0.8286 -0.5490
vn -0.0000 0.3805 -0.9248
vn 0.1804 0.3805 -0.9070
vn -0.0000 -0.9217 -0.3879
vn 0.0757 -0.9217 -0.3804
vn -0.0000 0.1939 -0.9810
vn 0.1914 0.1939 -0.9622
vn -0.0000 -0.9796 -0.2010
vn 0.0392 -0.9796 -0.1971
vn -0.0000 -0.0000 -1.0000
vn 0.1951 -0.0000 -0.9808
vn -0.0000 0.9796 -0.2010
vn -0.0000 1.0000 -0.0000
vn 0.0392 0.9796 -0.1971
vn -0.0000 -1.0000 -0.0000
vn -0.0000 -0.1939 -0.9810
vn 0.1914 -0.1939 -0.9622
vn -0.0000 0.9217 -0.3879
vn 0.0757 0.9217 -0.3804
vn -0.0000 -0.3805 -0.9248
vn 0.1804 -0.3805 -0.9070
vn 0.3754 -0.1939 -0.9063
vn 0.3539 -0.3805 -0.8544
vn 0.1484 0.9217 -0.3584
vn 0.2142 0.8286 -0.5172
vn 0.3189 -0.5528 -0.7699
vn 0.2718 0.7041 -0.6561
vn 0.2718 -0.7041 -0.6561
vn 0.3189 0.5528 -0.7699
vn 0.2142 -0.8286 -0.5172
vn 0.3539 0.3805 -0.8544
vn 0.1484 -0.9217 -0.3584
vn 0.3754 0.1939 -0.9063
vn 0.0769 -0.9796 -0.1857
vn 0.3827 -0.0000 -0.9239
vn 0.0769 0.9796 -0.1857
vn 0.3110 -0.8286 -0.4654
vn 0.2155 -0.9217 -0.3225
vn 0.5138 0.3805 -0.7689
vn 0.5450 0.1939 -0.8157
vn 0.1117 -0.9796 -0.1671
vn 0.5556 -0.0000 -0.8315
vn 0.1117 0.9796 -0.1671
vn 0.5450 -0.1939 -0.8157
vn 0.2155 0.9217 -0.3225
vn 0.5138 -0.3805 -0.7689
vn 0.3110 0.8286 -0.4654
vn 0.4630 -0.5528 -0.6929
vn 0.3945 0.7041 -0.5905
vn 0.3945 -0.7041 -0.5905
vn 0.4630 0.5528 -0.6929
vn 0.6539 -0.3805 -0.6539
vn 0.5893 -0.5528 -0.5893
vn 0.3958 0.8286 -0.3958
vn 0.5021 0.7041 -0.5021
vn 0.5021 -0.7041 -0.5021
vn 0.5893 0.5528 -0.5893
vn 0.3958 -0.8286 -0.3958
vn 0.6539 0.3805 -0.6539
vn 0.2743 -0.9217 -0.2743
vn 0.6937 0.1939 -0.6937
vn 0.1421 -0.9796 -0.1421
vn 0.7071 -0.0000 -0.7071
vn 0.1421 0.9796 -0.1421
vn 0.6937 -0.1939 -0.6937
vn 0.2743 0.9217 -0.2743
vn 0.3225 -0.9217 -0.2155
vn 0.1671 -0.9796 -0.1117
vn 0.8157 0.1939 -0.5450
vn 0.8315 -0.0000 -0.5556
vn 0.1671 0.9796 -0.1117
vn 0.8157 -0.1939 -0.5450
vn 0.3225 0.9217 -0.2155
vn 0.7689 -0.3805 -0.5138
vn 0.4654 0.8286 -0.3110
vn 0.6929 -0.5528 -0.4630
vn 0.5905 0.7041 -0.3945
vn 0.5905 -0.7041 -0.3945
vn 0.6929 0.5528 -0.4630
vn 0.4654 -0.8286 -0.3110
vn 0.7689 0.3805 -0.5138
vn 0.5172 0.8286 -0.2142
vn 0.6561 0.7041 -0.2718
vn 0.7699 -0.5528 -0.3189
vn 0.6561 -0.7041 -0.2718
vn 0.7699 0.5528 -0.3189
vn 0.5172 -0.8286 -0.2142
vn 0.8544 0.3805 -0.3539
vn 0.3584 -0.9217 -0.1484
vn 0.9063 0.1939 -0.3754
vn 0.1857 -0.9796 -0.0769
vn 0.9239 -0.0000 -0.3827
vn 0.1857 0.9796 -0.0769
vn 0.9063 -0.1939 -0.3754
vn 0.3584 0.9217 -0.1484
vn 0.8544 -0.3805 -0.3539
vn 0.9622 0.1939 -0.1914
vn 0.9808 -0.0000 -0.1951
vn 0.1971 0.9796 -0.0392
vn 0.1971 -0.9796 -0.0392
vn 0.9622 -0.1939 -0.1914
vn 0.3804 0.9217 -0.0757
vn 0.9070 -0.3805 -0.1804
vn 0.5490 0.8286 -0.1092
vn 0.8173 -0.5528 -0.1626
vn 0.6965 0.7041 -0.1385
vn 0.6965 -0.7041 -0.1385
vn 0.8173 0.5528 -0.1626
vn 0.5490 -0.8286 -0.1092
vn 0.9070 0.3805 -0.1804
vn 0.3804 -0.9217 -0.0757
vn 0.8333 -0.5528 -0.0000
vn 0.7101 -0.7041 -0.0000
vn 0.7101 0.7041 -0.0000
vn 0.8333 0.5528 -0.0000
vn 0.5598 -0.8286 -0.0000
vn 0.9248 0.3805 -0.0000
vn 0.3879 -0.9217 -0.0000
vn 0.9810 0.1939 -0.0000
vn 0.2010 -0.9796 -0.0000
vn 1.0000 -0.0000 -0.0000
vn 0.2010 0.9796 -0.0000
vn 0.9810 -0.1939 -0.0000
vn 0.3879 0.9217 -0.0000
vn 0.9248 -0.3805 -0.0000
vn 0.5598 0.8286 -0.0000
vn 0.1971 0.9796 0.0392
vn 0.1971 -0.9796 0.0392
vn 0.9808 -0.0000 0.1951
vn 0.9622 -0.1939 0.1914
vn 0.3804 0.9217 0.0757
vn 0.9070 -0.3805 0.1804
vn 0.5490 0.8286 0.1092
vn 0.8173 -0.5528 0.1626
vn 0.6965 0.7041 0.1385
vn 0.6965 -0.7041 0.1385
vn 0.8173 0.5528 0.1626
vn 0.5490 -0.8286 0.1092
vn 0.9070 0.3805 0.1804
vn 0.3804 -0.9217 0.0757
vn 0.9622 0.1939 0.1914
vn 0.6561 0.7041 0.2718
vn 0.7699 0.5528 0.3189
vn 0.6561 -0.7041 0.2718
vn 0.5172 -0.8286 0.2142
vn 0.8544 0.3805 0.3539
vn 0.3584 -0.9217 0.1484
vn 0.9063 0.1939 0.3754
vn 0.1857 -0.9796 0.0769
vn 0.9239 -0.0000 0.3827
vn 0.1857 0.9796 0.0769
vn 0.9063 -0.1939 0.3754
vn 0.3584 0.9217 0.1484
vn 0.8544 -0.3805 0.3539
vn 0.5172 0.8286 0.2142
vn 0.7699 -0.5528 0.3189
vn 0.8315 -0.0000 0.5556
vn 0.8157 -0.1939 0.5450
vn 0.1671 0.9796 0.1117
vn 0.3225 0.9217 0.2155
vn 0.7689 -0.3805 0.5138
vn 0.4654 0.8286 0.3110
vn 0.6929 -0.5528 0.4630
vn 0.5905 0.7041 0.3945
vn 0.5905 -0.7041 0.3945
vn 0.6929 0.5528 0.4630
vn 0.4654 -0.8286 0.3110
vn 0.7689 0.3805 0.5138
vn 0.3225 -0.9217 0.2155
vn 0.8157 0.1939 0.5450
vn 0.1671 -0.9796 0.1117
vn 0.5021 -0.7041 0.5021
vn 0.3958 -0.8286 0.3958
vn 0.5893 0.5528 0.5893
vn 0.6539 0.3805 0.6539
vn 0.2743 -0.9217 0.2743
vn 0.6937 0.1939 0.6937
vn 0.1421 -0.9796 0.1421
vn 0.7071 -0.0000 0.7071
vn 0.1421 0.9796 0.1421
vn 0.6937 -0.1939 0.6937
vn 0.2743 0.9217 0.2743
vn 0.6539 -0.3805 0.6539
vn 0.3958 0.8286 0.3958
vn 0.5893 -0.5528 0.5893
vn 0.5021 0.7041 0.5021
vn 0.5450 -0.1939 0.8157
vn 0.5138 -0.3805 0.7689
vn 0.2155 0.9217 0.3225
vn 0.3110 0.8286 0.4654
vn 0.4630 -0.5528 0.6929
vn 0.3945 0.7041 0.5905
vn 0.3945 -0.7041 0.5905
vn 0.4630 0.5528 0.6929
vn 0.3110 -0.8286 0.4654
vn 0.5138 0.3805 0.7689
vn 0.2155 -0.9217 0.3225
vn 0.5450 0.1939 0.8157
vn 0.1117 -0.9796 0.1671
vn 0.5556 -0.0000 0.8315
vn 0.1117 0.9796 0.1671
vn 0.2142 -0.8286 0.5172
vn 0.1484 -0.9217 0.3584
vn 0.3539 0.3805 0.8544
vn 0.3754 0.1939 0.9063
vn 0.0769 -0.9796 0.1857
vn 0.3827 -0.0000 0.9239
vn 0.0769 0.9796 0.1857
vn 0.3754 -0.1939 0.9063
vn 0.1484 0.9217 0.3584
vn 0.3539 -0.3805 0.8544
vn 0.2142 0.8286 0.5172
vn 0.3189 -0.5528 0.7699
vn 0.2718 0.7041 0.6561
vn 0.2718 -0.7041 0.6561
vn 0.3189 0.5528 0.7699
vn 0.0757 0.9217 0.3804
vn 0.1092 0.8286 0.5490
vn 0.1804 -0.3805 0.9070
vn 0.1626 -0.5528 0.8173
vn 0.1385 0.7041 0.6965
vn 0.1385 -0.7041 0.6965
vn 0.1626 0.5528 0.8173
vn 0.1092 -0.8286 0.5490
vn 0.1804 0.3805 0.9070
vn 0.0757 -0.9217 0.3804
vn 0.1914 0.1939 0.9622
vn 0.0392 -0.9796 0.1971
vn 0.1951 -0.0000 0.9808
vn 0.0392 0.9796 0.1971
vn 0.1914 -0.1939 0.9622
vn -0.0000 0.3805 0.9248
vn -0.0000 0.1939 0.9810
vn -0.0000 -0.9217 0.3879
vn -0.0000 -0.9796 0.2010
vn -0.0000 -0.0000 1.0000
vn -0.0000 0.9796 0.2010
vn -0.0000 -0.1939 0.9810
vn -0.0000 0.9217 0.3879
vn -0.0000 -0.3805 0.9248
vn -0.0000 0.8286 0.5598
vn -0.0000 -0.5528 0.8333
vn -0.0000 0.7041 0.7101
vn -0.0000 -0.7041 0.7101
vn -0.0000 0.5528 0.8333
vn -0.0000 -0.8286 0.5598
vn -0.1804 -0.3805 0.9070
vn -0.1626 -0.5528 0.8173
vn -0.1092 0.8286 0.5490
vn -0.1385 0.7041 0.6965
vn -0.1385 -0.7041 0.6965
vn -0.1626 0.5528 0.8173
vn -0.1092 -0.8286 0.5490
vn -0.1804 0.3805 0.9070
vn -0.0757 -0.9217 0.3804
vn -0.1914 0.1939 0.9622
vn -0.0392 -0.9796 0.1971
vn -0.1951 -0.0000 0.9808
vn -0.0392 0.9796 0.1971
vn -0.1914 -0.1939 0.9622
vn -0.0757 0.9217 0.3804
vn -0.1484 -0.9217 0.3584
vn -0.0769 -0.9796 0.1857
vn -0.3754 0.1939 0.9063
vn -0.3827 -0.0000 0.9239
vn -0.0769 0.9796 0.1857
vn -0.3754 -0.1939 0.9063
vn -0.1484 0.9217 0.3584
vn -0.3539 -0.3805 0.8544
vn -0.2142 0.8286 0.5172
vn -0.3189 -0.5528 0.7699
vn -0.2718 0.7041 0.6561
vn -0.2718 -0.7041 0.6561
vn -0.3189 0.5528 0.7699
vn -0.2142 -0.8286 0.5172
vn -0.3539 0.3805 0.8544
vn -0.3110 0.8286 0.4654
vn -0.3945 0.7041 0.5905
vn -0.4630 -0.5528 0.6929
vn -0.3945 -0.7041 0.5905
vn -0.4630 0.5528 0.6929
vn -0.3110 -0.8286 0.4654
vn -0.5138 0.3805 0.7689
vn -0.2155 -0.9217 0.3225
vn -0.5450 0.1939 0.8157
vn -0.1117 -0.9796 0.1671
vn -0.5556 -0.0000 0.8315
vn -0.1117 0.9796 0.1671
vn -0.5450 -0.1939 0.8157
vn -0.2155 0.9217 0.3225
vn -0.5138 -0.3805 0.7689
vn -0.6937 0.1939 0.6937
vn -0.7071 -0.0000 0.7071
vn -0.1421 0.9796 0.1421
vn -0.1421 -0.9796 0.1421
vn -0.6937 -0.1939 0.6937
vn -0.2743 0.9217 0.2743
vn -0.6539 -0.3805 0.6539
vn -0.3958 0.8286 0.3958
vn -0.5893 -0.5528 0.5893
vn -0.5021 0.7041 0.5021
vn -0.5021 -0.7041 0.5021
vn -0.5893 0.5528 0.5893
vn -0.3958 -0.8286 0.3958
vn -0.6539 0.3805 0.6539
vn -0.2743 -0.9217 0.2743
vn -0.6929 -0.5528 0.4630
vn -0.5905 -0.7041 0.3945
vn -0.5905 0.7041 0.3945
vn -0.6929 0.5528 0.4630
vn -0.4654 -0.8286 0.3110
vn -0.7689 0.3805 0.5138
vn -0.3225 -0.9217 0.2155
vn -0.8157 0.1939 0.5450
vn -0.1671 -0.9796 0.1117
vn -0.8315 -0.0000 0.5556
vn -0.1671 0.9796 0.1117
vn -0.8157 -0.1939 0.5450
vn -0.3225 0.9217 0.2155
vn -0.7689 -0.3805 0.5138
vn -0.4654 0.8286 0.3110
vn -0.1857 -0.9796 0.0769
vn -0.9239 -0.0000 0.3827
vn -0.9063 -0.1939 0.3754
vn -0.1857 0.9796 0.0769
vn -0.3584 0.9217 0.1484
vn -0.8544 -0.3805 0.3539
vn -0.5172 0.8286 0.2142
vn -0.7699 -0.5528 0.3189
vn -0.6561 0.7041 0.2718
vn -0.6561 -0.7041 0.2718
vn -0.7699 0.5528 0.3189
vn -0.5172 -0.8286 0.2142
vn -0.8544 0.3805 0.3539
vn -0.3584 -0.9217 0.1484
vn -0.9063 0.1939 0.3754
vn -0.6965 -0.7041 0.1385
vn -0.5490 -0.8286 0.1092
vn -0.8173 0.5528 0.1626
vn -0.9070 0.3805 0.1804
vn -0.3804 -0.9217 0.0757
vn -0.9622 0.1939 0.1914
vn -0.1971 -0.9796 0.0392
vn -0.9808 -0.0000 0.1951
vn -0.1971 0.9796 0.0392
vn -0.9622 -0.1939 0.1914
vn -0.3804 0.9217 0.0757
vn -0.9070 -0.3805 0.1804
vn -0.5490 0.8286 0.1092
vn -0.8173 -0.5528 0.1626
vn -0.6965 0.7041 0.1385
vn -0.2010 0.9796 -0.0000
vn -0.3879 0.9217 -0.0000
vn -0.9810 -0.1939 -0.0000
vn -0.9248 -0.3805 -0.0000
vn -0.5598 0.8286 -0.0000
vn -0.8333 -0.5528 -0.0000
vn -0.7101 0.7041 -0.0000
vn -0.7101 -0.7041 -0.0000
vn -0.8333 0.5528 -0.0000
vn -0.5598 -0.8286 -0.0000
vn -0.9248 0.3805 -0.0000
vn -0.3879 -0.9217 -0.0000
vn -0.9810 0.1939 -0.0000
vn -0.2010 -0.9796 -0.0000
vn -1.0000 -0.0000 -0.0000
vn -0.8173 0.5528 -0.1626
vn -0.9070 0.3805 -0.1804
vn -0.5490 -0.8286 -0.1092
vn -0.3804 -0.9217 -0.0757
vn -0.9622 0.1939 -0.1914
vn -0.1971 -0.9796 -0.0392
vn -0.9808 -0.0000 -0.1951
vn -0.1971 0.9796 -0.0392
vn -0.9622 -0.1939 -0.1914
vn -0.3804 0.9217 -0.0757
vn -0.9070 -0.3805 -0.1804
vn -0.5490 0.8286 -0.1092
vn -0.8173 -0.5528 -0.1626
vn -0.6965 0.7041 -0.1385
vn -0.6965 -0.7041 -0.1385
vn -0.9063 -0.1939 -0.3754
vn -0.8544 -0.3805 -0.3539
vn -0.3584 0.9217 -0.1484
vn -0.5172 0.8286 -0.2142
vn -0.7699 -0.5528 -0.3189
vn -0.6561 0.7041 -0.2718
vn -0.6561 -0.7041 -0.2718
vn -0.7699 0.5528 -0.3189
vn -0.5172 -0.8286 -0.2142
vn -0.8544 0.3805 -0.3539
vn -0.3584 -0.9217 -0.1484
vn -0.9063 0.1939 -0.3754
vn -0.1857 -0.9796 -0.0769
vn -0.9239 -0.0000 -0.3827
vn -0.1857 0.9796 -0.0769
vn -0.4654 -0.8286 -0.3110
vn -0.3225 -0.9217 -0.2155
vn -0.7689 0.3805 -0.5138
vn -0.8157 0.1939 -0.5450
vn -0.1671 -0.9796 -0.1117
vn -0.8315 -0.0000 -0.5556
vn -0.1671 0.9796 -0.1117
vn -0.8157 -0.1939 -0.5450
vn -0.3225 0.9217 -0.2155
vn -0.7689 -0.3805 -0.5138
vn -0.4654 0.8286 -0.3110
vn -0.6929 -0.5528 -0.4630
vn -0.5905 0.7041 -0.3945
vn -0.5905 -0.7041 -0.3945
vn -0.6929 0.5528 -0.4630
vn -0.2743 0.9217 -0.2743
vn -0.3958 0.8286 -0.3958
vn -0.6539 -0.3805 -0.6539
vn -0.5893 -0.5528 -0.5893
vn -0.5021 0.7041 -0.5021
vn -0.5021 -0.7041 -0.5021
vn -0.5893 0.5528 -0.5893
vn -0.3958 -0.8286 -0.3958
vn -0.6539 0.3805 -0.6539
vn -0.2743 -0.9217 -0.2743
vn -0.6937 0.1939 -0.6937
vn -0.1421 -0.9796 -0.1421
vn -0.7071 -0.0000 -0.7071
vn -0.1421 0.9796 -0.1421
vn -0.6937 -0.1939 -0.6937
vn -0.5138 0.3805 -0.7689
vn -0.5450 0.1939 -0.8157
vn -0.2155 -0.9217 -0.3225
vn -0.1117 -0.9796 -0.1671
vn -0.5556 -0.0000 -0.8315
vn -0.1117 0.9796 -0.1671
vn -0.5450 -0.1939 -0.8157
vn -0.2155 0.9217 -0.3225
vn -0.5138 -0.3805 -0.7689
vn -0.3110 0.8286 -0.4654
vn -0.4630 -0.5528 -0.6929
vn -0.3945 0.7041 -0.5905
vn -0.3945 -0.7041 -0.5905
vn -0.4630 0.5528 -0.6929
vn -0.3110 -0.8286 -0.4654
vn -0.3539 -0.3805 -0.8544
vn -0.3189 -0.5528 -0.7699
vn -0.2142 0.8286 -0.5172
vn -0.2718 0.7041 -0.6561
vn -0.2718 -0.7041 -0.6561
vn -0.3189 0.5528 -0.7699
vn -0.2142 -0.8286 -0.5172
vn -0.3539 0.3805 -0.8544
vn -0.1484 -0.9217 -0.3584
vn -0.3754 0.1939 -0.9063
vn -0.0769 -0.9796 -0.1857
vn -0.3827 -0.0000 -0.9239
vn -0.0769 0.9796 -0.1857
vn -0.3754 -0.1939 -0.9063
vn -0.1484 0.9217 -0.3584
vn -0.0757 -0.9217 -0.3804
vn -0.0392 -0.9796 -0.1971
vn -0.1914 0.1939 -0.9622
vn -0.1951 -0.0000 -0.9808
vn -0.0392 0.9796 -0.1971
vn -0.1914 -0.1939 -0.9622
vn -0.0757 0.9217 -0.3804
vn -0.1804 -0.3805 -0.9070
vn -0.1092 0.8286 -0.5490
vn -0.1626 -0.5528 -0.8173
vn -0.1385 0.7041 -0.6965
vn -0.1385 -0.7041 -0.6965
vn -0.1626 0.5528 -0.8173
vn -0.1092 -0.8286 -0.5490
vn -0.1804 0.3805 -0.9070
vt 0.031975 0.970659
vt 0.031975 0.970790
vt 0.031909 0.970790
vt 0.031909 0.970659
vt 0.031975 0.969608
vt 0.031975 0.969739
vt 0.031909 0.969739
vt 0.031909 0.969608
vt 0.031975 0.970528
vt 0.031909 0.970528
vt 0.031975 0.969477
vt 0.031909 0.969477
vt 0.031975 0.970396
vt 0.031909 0.970396
vt 0.031975 0.969345
vt 0.031909 0.969345
vt 0.031975 0.970265
vt 0.031909 0.970265
vt 0.031975 0.969214
vt 0.031909 0.969214
vt 0.031975 0.970134
vt 0.031909 0.970134
vt 0.031975 0.971053
vt 0.031942 0.971184
vt 0.031909 0.971053
vt 0.031942 0.969083
vt 0.031975 0.970002
vt 0.031909 0.970002
vt 0.031975 0.970922
vt 0.031909 0.970922
vt 0.031975 0.969871
vt 0.031909 0.969871
vt 0.031844 0.970002
vt 0.031844 0.969871
vt 0.031844 0.970922
vt 0.031844 0.970790
vt 0.031844 0.969739
vt 0.031844 0.970659
vt 0.031844 0.969608
vt 0.031844 0.970528
vt 0.031844 0.969477
vt 0.031844 0.970396
vt 0.031844 0.969345
vt 0.031844 0.970265
vt 0.031844 0.969214
vt 0.031844 0.970134
vt 0.031876 0.971184
vt 0.031844 0.971053
vt 0.031876 0.969083
vt 0.031778 0.969477
vt 0.031778 0.969345
vt 0.031778 0.970396
vt 0.031778 0.970265
vt 0.031778 0.969214
vt 0.031778 0.970134
vt 0.031811 0.971184
vt 0.031778 0.971053
vt 0.031811 0.969083
vt 0.031778 0.970002
vt 0.031778 0.970922
vt 0.031778 0.969871
vt 0.031778 0.970790
vt 0.031778 0.969739
vt 0.031778 0.970659
vt 0.031778 0.969608
vt 0.031778 0.970528
vt 0.031712 0.969871
vt 0.031712 0.969739
vt 0.031712 0.970790
vt 0.031712 0.970659
vt 0.031712 0.969608
vt 0.031712 0.970528
vt 0.031712 0.969477
vt 0.031712 0.970396
vt 0.031712 0.969345
vt 0.031712 0.970265
vt 0.031712 0.969214
vt 0.031712 0.970134
vt 0.031745 0.971184
vt 0.031712 0.971053
vt 0.031745 0.969083
vt 0.031712 0.970002
vt 0.031712 0.970922
vt 0.031647 0.969345
vt 0.031647 0.969214
vt 0.031647 0.970265
vt 0.031647 0.970134
vt 0.031679 0.971184
vt 0.031647 0.971053
vt 0.031679 0.969083
vt 0.031647 0.970002
vt 0.031647 0.970922
vt 0.031647 0.969871
vt 0.031647 0.970790
vt 0.031647 0.969739
vt 0.031647 0.970659
vt 0.031647 0.969608
vt 0.031647 0.970528
vt 0.031647 0.969477
vt 0.031647 0.970396
vt 0.031581 0.970790
vt 0.031581 0.970659
vt 0.031581 0.969739
vt 0.031581 0.969608
vt 0.031581 0.970528
vt 0.031581 0.969477
vt 0.031581 0.970396
vt 0.031581 0.969345
vt 0.031581 0.970265
vt 0.031581 0.969214
vt 0.031581 0.970134
vt 0.031614 0.971184
vt 0.031581 0.971053
vt 0.031614 0.969083
vt 0.031581 0.970002
vt 0.031581 0.970922
vt 0.031581 0.969871
vt 0.031515 0.970265
vt 0.031515 0.970134
vt 0.031548 0.971184
vt 0.031515 0.971053
vt 0.031548 0.969083
vt 0.031515 0.969214
vt 0.031515 0.970002
vt 0.031515 0.970922
vt 0.031515 0.969871
vt 0.031515 0.970790
vt 0.031515 0.969739
vt 0.031515 0.970659
vt 0.031515 0.969608
vt 0.031515 0.970528
vt 0.031515 0.969477
vt 0.031515 0.970396
vt 0.031515 0.969345
vt 0.031450 0.969739
vt 0.031450 0.969608
vt 0.031450 0.970659
vt 0.031450 0.970528
vt 0.031450 0.969477
vt 0.031450 0.970396
vt 0.031450 0.969345
vt 0.031450 0.970265
vt 0.031450 0.969214
vt 0.031450 0.970134
vt 0.031482 0.971184
vt 0.031450 0.971053
vt 0.031482 0.969083
vt 0.031450 0.970002
vt 0.031450 0.970922
vt 0.031450 0.969871
vt 0.031450 0.970790
vt 0.031417 0.971184
vt 0.031384 0.971053
vt 0.031417 0.969083
vt 0.031384 0.969214
vt 0.031384 0.970134
vt 0.031384 0.970002
vt 0.031384 0.970922
vt 0.031384 0.969871
vt 0.031384 0.970790
vt 0.031384 0.969739
vt 0.031384 0.970659
vt 0.031384 0.969608
vt 0.031384 0.970528
vt 0.031384 0.969477
vt 0.031384 0.970396
vt 0.031384 0.969345
vt 0.031384 0.970265
vt 0.031318 0.970659
vt 0.031318 0.970528
vt 0.031318 0.969608
vt 0.031318 0.969477
vt 0.031318 0.970396
vt 0.031318 0.969345
vt 0.031318 0.970265
vt 0.031318 0.969214
vt 0.031318 0.970134
vt 0.031351 0.971184
vt 0.031318 0.971053
vt 0.031351 0.969083
vt 0.031318 0.970002
vt 0.031318 0.970922
vt 0.031318 0.969871
vt 0.031318 0.970790
vt 0.031318 0.969739
vt 0.031253 0.970134
vt 0.031253 0.970002
vt 0.031253 0.971053
vt 0.031253 0.970922
vt 0.031253 0.969871
vt 0.031253 0.970790
vt 0.031253 0.969739
vt 0.031253 0.970659
vt 0.031253 0.969608
vt 0.031253 0.970528
vt 0.031253 0.969477
vt 0.031253 0.970396
vt 0.031253 0.969345
vt 0.031253 0.970265
vt 0.031253 0.969214
vt 0.031285 0.971184
vt 0.031285 0.969083
vt 0.031187 0.969608
vt 0.031187 0.969477
vt 0.031187 0.970528
vt 0.031187 0.970396
vt 0.031187 0.969345
vt 0.031187 0.970265
vt 0.031187 0.969214
vt 0.031187 0.970134
vt 0.031220 0.971184
vt 0.031187 0.971053
vt 0.031220 0.969083
vt 0.031187 0.970002
vt 0.031187 0.970922
vt 0.031187 0.969871
vt 0.031187 0.970790
vt 0.031187 0.969739
vt 0.031187 0.970659
vt 0.031121 0.970002
vt 0.031121 0.969871
vt 0.031121 0.970922
vt 0.031121 0.970790
vt 0.031121 0.969739
vt 0.031121 0.970659
vt 0.031121 0.969608
vt 0.031121 0.970528
vt 0.031121 0.969477
vt 0.031121 0.970396
vt 0.031121 0.969345
vt 0.031121 0.970265
vt 0.031121 0.969214
vt 0.031121 0.970134
vt 0.031154 0.971184
vt 0.031121 0.971053
vt 0.031154 0.969083
vt 0.031055 0.969477
vt 0.031055 0.969345
vt 0.031055 0.970396
vt 0.031055 0.970265
vt 0.031055 0.969214
vt 0.031055 0.970134
vt 0.031088 0.971184
vt 0.031055 0.971053
vt 0.031088 0.969083
vt 0.031055 0.970002
vt 0.031055 0.970922
vt 0.031055 0.969871
vt 0.031055 0.970790
vt 0.031055 0.969739
vt 0.031055 0.970659
vt 0.031055 0.969608
vt 0.031055 0.970528
vt 0.030990 0.970922
vt 0.030990 0.970790
vt 0.030990 0.969871
vt 0.030990 0.969739
vt 0.030990 0.970659
vt 0.030990 0.969608
vt 0.030990 0.970528
vt 0.030990 0.969477
vt 0.030990 0.970396
vt 0.030990 0.969345
vt 0.030990 0.970265
vt 0.030990 0.969214
vt 0.030990 0.970134
vt 0.031023 0.971184
vt 0.030990 0.971053
vt 0.031023 0.969083
vt 0.030990 0.970002
vt 0.030924 0.970396
vt 0.030924 0.970265
vt 0.030924 0.969345
vt 0.030924 0.969214
vt 0.030924 0.970134
vt 0.030957 0.971184
vt 0.030924 0.971053
vt 0.030957 0.969083
vt 0.030924 0.970002
vt 0.030924 0.970922
vt 0.030924 0.969871
vt 0.030924 0.970790
vt 0.030924 0.969739
vt 0.030924 0.970659
vt 0.030924 0.969608
vt 0.030924 0.970528
vt 0.030924 0.969477
vt 0.030858 0.969871
vt 0.030858 0.969739
vt 0.030858 0.970790
vt 0.030858 0.970659
vt 0.030858 0.969608
vt 0.030858 0.970528
vt 0.030858 0.969477
vt 0.030858 0.970396
vt 0.030858 0.969345
vt 0.030858 0.970265
vt 0.030858 0.969214
vt 0.030858 0.970134
vt 0.030891 0.971184
vt 0.030858 0.971053
vt 0.030891 0.969083
vt 0.030858 0.970002
vt 0.030858 0.970922
vt 0.030793 0.969345
vt 0.030793 0.969214
vt 0.030793 0.970265
vt 0.030793 0.970134
vt 0.030826 0.971184
vt 0.030793 0.971053
vt 0.030826 0.969083
vt 0.030793 0.970002
vt 0.030793 0.970922
vt 0.030793 0.969871
vt 0.030793 0.970790
vt 0.030793 0.969739
vt 0.030793 0.970659
vt 0.030793 0.969608
vt 0.030793 0.970528
vt 0.030793 0.969477
vt 0.030793 0.970396
vt 0.030727 0.970790
vt 0.030727 0.970659
vt 0.030727 0.969739
vt 0.030727 0.969608
vt 0.030727 0.970528
vt 0.030727 0.969477
vt 0.030727 0.970396
vt 0.030727 0.969345
vt 0.030727 0.970265
vt 0.030727 0.969214
vt 0.030727 0.970134
vt 0.030760 0.971184
vt 0.030727 0.971053
vt 0.030760 0.969083
vt 0.030727 0.970002
vt 0.030727 0.970922
vt 0.030727 0.969871
vt 0.030661 0.970265
vt 0.030661 0.970134
vt 0.030694 0.971184
vt 0.030661 0.971053
vt 0.030694 0.969083
vt 0.030661 0.969214
vt 0.030661 0.970002
vt 0.030661 0.970922
vt 0.030661 0.969871
vt 0.030661 0.970790
vt 0.030661 0.969739
vt 0.030661 0.970659
vt 0.030661 0.969608
vt 0.030661 0.970528
vt 0.030661 0.969477
vt 0.030661 0.970396
vt 0.030661 0.969345
vt 0.030596 0.969739
vt 0.030596 0.969608
vt 0.030596 0.970659
vt 0.030596 0.970528
vt 0.030596 0.969477
vt 0.030596 0.970396
vt 0.030596 0.969345
vt 0.030596 0.970265
vt 0.030596 0.969214
vt 0.030596 0.970134
vt 0.030629 0.971184
vt 0.030596 0.971053
vt 0.030629 0.969083
vt 0.030596 0.970002
vt 0.030596 0.970922
vt 0.030596 0.969871
vt 0.030596 0.970790
vt 0.030563 0.969083
vt 0.030530 0.969214
vt 0.030530 0.970134
vt 0.030530 0.970002
vt 0.030530 0.971053
vt 0.030530 0.970922
vt 0.030530 0.969871
vt 0.030530 0.970790
vt 0.030530 0.969739
vt 0.030530 0.970659
vt 0.030530 0.969608
vt 0.030530 0.970528
vt 0.030530 0.969477
vt 0.030530 0.970396
vt 0.030530 0.969345
vt 0.030530 0.970265
vt 0.030563 0.971184
vt 0.030464 0.969608
vt 0.030464 0.969477
vt 0.030464 0.970528
vt 0.030464 0.970396
vt 0.030464 0.969345
vt 0.030464 0.970265
vt 0.030464 0.969214
vt 0.030464 0.970134
vt 0.030497 0.971184
vt 0.030464 0.971053
vt 0.030497 0.969083
vt 0.030464 0.970002
vt 0.030464 0.970922
vt 0.030464 0.969871
vt 0.030464 0.970790
vt 0.030464 0.969739
vt 0.030464 0.970659
vt 0.030399 0.971053
vt 0.030399 0.970922
vt 0.030399 0.970002
vt 0.030399 0.969871
vt 0.030399 0.970790
vt 0.030399 0.969739
vt 0.030399 0.970659
vt 0.030399 0.969608
vt 0.030399 0.970528
vt 0.030399 0.969477
vt 0.030399 0.970396
vt 0.030399 0.969345
vt 0.030399 0.970265
vt 0.030399 0.969214
vt 0.030399 0.970134
vt 0.030432 0.971184
vt 0.030432 0.969083
vt 0.032500 0.970396
vt 0.032500 0.970528
vt 0.032435 0.970528
vt 0.032435 0.970396
vt 0.032500 0.969345
vt 0.032500 0.969477
vt 0.032435 0.969477
vt 0.032435 0.969345
vt 0.032500 0.970265
vt 0.032435 0.970265
vt 0.032500 0.969214
vt 0.032435 0.969214
vt 0.032500 0.970134
vt 0.032435 0.970134
vt 0.032500 0.971053
vt 0.032468 0.971184
vt 0.032435 0.971053
vt 0.032468 0.969083
vt 0.032500 0.970002
vt 0.032435 0.970002
vt 0.032500 0.970922
vt 0.032435 0.970922
vt 0.032500 0.969871
vt 0.032435 0.969871
vt 0.032500 0.970790
vt 0.032435 0.970790
vt 0.032500 0.969739
vt 0.032435 0.969739
vt 0.032500 0.970659
vt 0.032435 0.970659
vt 0.032500 0.969608
vt 0.032435 0.969608
vt 0.032369 0.970002
vt 0.032369 0.969871
vt 0.032369 0.970922
vt 0.032369 0.970790
vt 0.032369 0.969739
vt 0.032369 0.970659
vt 0.032369 0.969608
vt 0.032369 0.970528
vt 0.032369 0.969477
vt 0.032369 0.970396
vt 0.032369 0.969345
vt 0.032369 0.970265
vt 0.032369 0.969214
vt 0.032369 0.970134
vt 0.032402 0.971184
vt 0.032369 0.971053
vt 0.032402 0.969083
vt 0.032303 0.969477
vt 0.032303 0.969345
vt 0.032303 0.970396
vt 0.032303 0.970265
vt 0.032303 0.969214
vt 0.032303 0.970134
vt 0.032336 0.971184
vt 0.032303 0.971053
vt 0.032336 0.969083
vt 0.032303 0.970002
vt 0.032303 0.970922
vt 0.032303 0.969871
vt 0.032303 0.970790
vt 0.032303 0.969739
vt 0.032303 0.970659
vt 0.032303 0.969608
vt 0.032303 0.970528
vt 0.032238 0.970922
vt 0.032238 0.970790
vt 0.032238 0.969871
vt 0.032238 0.969739
vt 0.032238 0.970659
vt 0.032238 0.969608
vt 0.032238 0.970528
vt 0.032238 0.969477
vt 0.032238 0.970396
vt 0.032238 0.969345
vt 0.032238 0.970265
vt 0.032238 0.969214
vt 0.032238 0.970134
vt 0.032271 0.971184
vt 0.032238 0.971053
vt 0.032271 0.969083
vt 0.032238 0.970002
vt 0.032172 0.970396
vt 0.032172 0.970265
vt 0.032172 0.969345
vt 0.032172 0.969214
vt 0.032172 0.970134
vt 0.032205 0.971184
vt 0.032172 0.971053
vt 0.032205 0.969083
vt 0.032172 0.970002
vt 0.032172 0.970922
vt 0.032172 0.969871
vt 0.032172 0.970790
vt 0.032172 0.969739
vt 0.032172 0.970659
vt 0.032172 0.969608
vt 0.032172 0.970528
vt 0.032172 0.969477
vt 0.032106 0.969871
vt 0.032106 0.969739
vt 0.032106 0.970790
vt 0.032106 0.970659
vt 0.032106 0.969608
vt 0.032106 0.970528
vt 0.032106 0.969477
vt 0.032106 0.970396
vt 0.032106 0.969345
vt 0.032106 0.970265
vt 0.032106 0.969214
vt 0.032106 0.970134
vt 0.032139 0.971184
vt 0.032106 0.971053
vt 0.032139 0.969083
vt 0.032106 0.970002
vt 0.032106 0.970922
vt 0.032041 0.969345
vt 0.032041 0.969214
vt 0.032041 0.970265
vt 0.032041 0.970134
vt 0.032073 0.971184
vt 0.032041 0.971053
vt 0.032073 0.969083
vt 0.032041 0.970002
vt 0.032041 0.970922
vt 0.032041 0.969871
vt 0.032041 0.970790
vt 0.032041 0.969739
vt 0.032041 0.970659
vt 0.032041 0.969608
vt 0.032041 0.970528
vt 0.032041 0.969477
vt 0.032041 0.970396
vt 0.032008 0.971184
vt 0.032008 0.969083
vt 0.031187 0.969083
vt 0.031712 0.969083
vt 0.031712 0.971184
vt 0.031187 0.971184
s 1
usemtl GMHead
f 476/1/1 2/2/2 11/3/3 12/4/4
f 479/5/5 7/6/6 19/7/7 20/8/8
f 3/9/9 476/1/1 12/4/4 13/10/10
f 480/11/11 479/5/5 20/8/8 21/12/12
f 477/13/13 3/9/9 13/10/10 14/14/14
f 481/15/15 480/11/11 21/12/12 22/16/16
f 4/17/17 477/13/13 14/14/14 15/18/18
f 482/19/19 481/15/15 22/16/16 23/20/20
f 5/21/21 4/17/17 15/18/18 16/22/22
f 474/23/23 1/24/24 9/25/25
f 8/26/26 482/19/19 23/20/20
f 6/27/27 5/21/21 16/22/22 17/28/28
f 475/29/29 474/23/23 9/25/25 10/30/30
f 478/31/31 6/27/27 17/28/28 18/32/32
f 2/2/2 475/29/29 10/30/30 11/3/3
f 7/6/6 478/31/31 18/32/32 19/7/7
f 18/32/32 17/28/28 32/33/33 33/34/34
f 11/3/3 10/30/30 25/35/35 26/36/36
f 19/7/7 18/32/32 33/34/34 34/37/37
f 12/4/4 11/3/3 26/36/36 27/38/38
f 20/8/8 19/7/7 34/37/37 35/39/39
f 13/10/10 12/4/4 27/38/38 28/40/40
f 21/12/12 20/8/8 35/39/39 36/41/41
f 14/14/14 13/10/10 28/40/40 29/42/42
f 22/16/16 21/12/12 36/41/41 37/43/43
f 15/18/18 14/14/14 29/42/42 30/44/44
f 23/20/20 22/16/16 37/43/43 38/45/45
f 16/22/22 15/18/18 30/44/44 31/46/46
f 9/25/25 1/47/24 24/48/47
f 8/49/26 23/20/20 38/45/45
f 17/28/28 16/22/22 31/46/46 32/33/33
f 10/30/30 9/25/25 24/48/47 25/35/35
f 37/43/43 36/41/41 51/50/48 52/51/49
f 30/44/44 29/42/42 44/52/50 45/53/51
f 38/45/45 37/43/43 52/51/49 53/54/52
f 31/46/46 30/44/44 45/53/51 46/55/53
f 24/48/47 1/56/24 39/57/54
f 8/58/26 38/45/45 53/54/52
f 32/33/33 31/46/46 46/55/53 47/59/55
f 25/35/35 24/48/47 39/57/54 40/60/56
f 33/34/34 32/33/33 47/59/55 48/61/57
f 26/36/36 25/35/35 40/60/56 41/62/58
f 34/37/37 33/34/34 48/61/57 49/63/59
f 27/38/38 26/36/36 41/62/58 42/64/60
f 35/39/39 34/37/37 49/63/59 50/65/61
f 28/40/40 27/38/38 42/64/60 43/66/62
f 36/41/41 35/39/39 50/65/61 51/50/48
f 29/42/42 28/40/40 43/66/62 44/52/50
f 49/63/59 48/61/57 63/67/63 64/68/64
f 42/64/60 41/62/58 56/69/65 57/70/66
f 50/65/61 49/63/59 64/68/64 65/71/67
f 43/66/62 42/64/60 57/70/66 58/72/68
f 51/50/48 50/65/61 65/71/67 66/73/69
f 44/52/50 43/66/62 58/72/68 59/74/70
f 52/51/49 51/50/48 66/73/69 67/75/71
f 45/53/51 44/52/50 59/74/70 60/76/72
f 53/54/52 52/51/49 67/75/71 68/77/73
f 46/55/53 45/53/51 60/76/72 61/78/74
f 39/57/54 1/79/24 54/80/75
f 8/81/26 53/54/52 68/77/73
f 47/59/55 46/55/53 61/78/74 62/82/76
f 40/60/56 39/57/54 54/80/75 55/83/77
f 48/61/57 47/59/55 62/82/76 63/67/63
f 41/62/58 40/60/56 55/83/77 56/69/65
f 68/77/73 67/75/71 82/84/78 83/85/79
f 61/78/74 60/76/72 75/86/80 76/87/81
f 54/80/75 1/88/24 69/89/82
f 8/90/26 68/77/73 83/85/79
f 62/82/76 61/78/74 76/87/81 77/91/83
f 55/83/77 54/80/75 69/89/82 70/92/84
f 63/67/63 62/82/76 77/91/83 78/93/85
f 56/69/65 55/83/77 70/92/84 71/94/86
f 64/68/64 63/67/63 78/93/85 79/95/87
f 57/70/66 56/69/65 71/94/86 72/96/88
f 65/71/67 64/68/64 79/95/87 80/97/89
f 58/72/68 57/70/66 72/96/88 73/98/90
f 66/73/69 65/71/67 80/97/89 81/99/91
f 59/74/70 58/72/68 73/98/90 74/100/92
f 67/75/71 66/73/69 81/99/91 82/84/78
f 60/76/72 59/74/70 74/100/92 75/86/80
f 72/96/88 71/94/86 86/101/93 87/102/94
f 80/97/89 79/95/87 94/103/95 95/104/96
f 73/98/90 72/96/88 87/102/94 88/105/97
f 81/99/91 80/97/89 95/104/96 96/106/98
f 74/100/92 73/98/90 88/105/97 89/107/99
f 82/84/78 81/99/91 96/106/98 97/108/100
f 75/86/80 74/100/92 89/107/99 90/109/101
f 83/85/79 82/84/78 97/108/100 98/110/102
f 76/87/81 75/86/80 90/109/101 91/111/103
f 69/89/82 1/112/24 84/113/104
f 8/114/26 83/85/79 98/110/102
f 77/91/83 76/87/81 91/111/103 92/115/105
f 70/92/84 69/89/82 84/113/104 85/116/106
f 78/93/85 77/91/83 92/115/105 93/117/107
f 71/94/86 70/92/84 85/116/106 86/101/93
f 79/95/87 78/93/85 93/117/107 94/103/95
f 91/111/103 90/109/101 105/118/108 106/119/109
f 84/113/104 1/120/24 99/121/110
f 8/122/26 98/110/102 113/123/111
f 92/115/105 91/111/103 106/119/109 107/124/112
f 85/116/106 84/113/104 99/121/110 100/125/113
f 93/117/107 92/115/105 107/124/112 108/126/114
f 86/101/93 85/116/106 100/125/113 101/127/115
f 94/103/95 93/117/107 108/126/114 109/128/116
f 87/102/94 86/101/93 101/127/115 102/129/117
f 95/104/96 94/103/95 109/128/116 110/130/118
f 88/105/97 87/102/94 102/129/117 103/131/119
f 96/106/98 95/104/96 110/130/118 111/132/120
f 89/107/99 88/105/97 103/131/119 104/133/121
f 97/108/100 96/106/98 111/132/120 112/134/122
f 90/109/101 89/107/99 104/133/121 105/118/108
f 98/110/102 97/108/100 112/134/122 113/123/111
f 110/130/118 109/128/116 124/135/123 125/136/124
f 103/131/119 102/129/117 117/137/125 118/138/126
f 111/132/120 110/130/118 125/136/124 126/139/127
f 104/133/121 103/131/119 118/138/126 119/140/128
f 112/134/122 111/132/120 126/139/127 127/141/129
f 105/118/108 104/133/121 119/140/128 120/142/130
f 113/123/111 112/134/122 127/141/129 128/143/131
f 106/119/109 105/118/108 120/142/130 121/144/132
f 99/121/110 1/145/24 114/146/133
f 8/147/26 113/123/111 128/143/131
f 107/124/112 106/119/109 121/144/132 122/148/134
f 100/125/113 99/121/110 114/146/133 115/149/135
f 108/126/114 107/124/112 122/148/134 123/150/136
f 101/127/115 100/125/113 115/149/135 116/151/137
f 109/128/116 108/126/114 123/150/136 124/135/123
f 102/129/117 101/127/115 116/151/137 117/137/125
f 114/146/133 1/152/24 129/153/138
f 8/154/26 128/143/131 143/155/139
f 122/148/134 121/144/132 136/156/140 137/157/141
f 115/149/135 114/146/133 129/153/138 130/158/142
f 123/150/136 122/148/134 137/157/141 138/159/143
f 116/151/137 115/149/135 130/158/142 131/160/144
f 124/135/123 123/150/136 138/159/143 139/161/145
f 117/137/125 116/151/137 131/160/144 132/162/146
f 125/136/124 124/135/123 139/161/145 140/163/147
f 118/138/126 117/137/125 132/162/146 133/164/148
f 126/139/127 125/136/124 140/163/147 141/165/149
f 119/140/128 118/138/126 133/164/148 134/166/150
f 127/141/129 126/139/127 141/165/149 142/167/151
f 120/142/130 119/140/128 134/166/150 135/168/152
f 128/143/131 127/141/129 142/167/151 143/155/139
f 121/144/132 120/142/130 135/168/152 136/156/140
f 133/164/148 132/162/146 147/169/153 148/170/154
f 141/165/149 140/163/147 155/171/155 156/172/156
f 134/166/150 133/164/148 148/170/154 149/173/157
f 142/167/151 141/165/149 156/172/156 157/174/158
f 135/168/152 134/166/150 149/173/157 150/175/159
f 143/155/139 142/167/151 157/174/158 158/176/160
f 136/156/140 135/168/152 150/175/159 151/177/161
f 129/153/138 1/178/24 144/179/162
f 8/180/26 143/155/139 158/176/160
f 137/157/141 136/156/140 151/177/161 152/181/163
f 130/158/142 129/153/138 144/179/162 145/182/164
f 138/159/143 137/157/141 152/181/163 153/183/165
f 131/160/144 130/158/142 145/182/164 146/184/166
f 139/161/145 138/159/143 153/183/165 154/185/167
f 132/162/146 131/160/144 146/184/166 147/169/153
f 140/163/147 139/161/145 154/185/167 155/171/155
f 152/181/163 151/177/161 166/186/168 167/187/169
f 145/182/164 144/179/162 159/188/170 160/189/171
f 153/183/165 152/181/163 167/187/169 168/190/172
f 146/184/166 145/182/164 160/189/171 161/191/173
f 154/185/167 153/183/165 168/190/172 169/192/174
f 147/169/153 146/184/166 161/191/173 162/193/175
f 155/171/155 154/185/167 169/192/174 170/194/176
f 148/170/154 147/169/153 162/193/175 163/195/177
f 156/172/156 155/171/155 170/194/176 171/196/178
f 149/173/157 148/170/154 163/195/177 164/197/179
f 157/174/158 156/172/156 171/196/178 172/198/180
f 150/175/159 149/173/157 164/197/179 165/199/181
f 158/176/160 157/174/158 172/198/180 173/200/182
f 151/177/161 150/175/159 165/199/181 166/186/168
f 144/179/162 1/201/24 159/188/170
f 8/202/26 158/176/160 173/200/182
f 171/196/178 170/194/176 185/203/183 186/204/184
f 164/197/179 163/195/177 178/205/185 179/206/186
f 172/198/180 171/196/178 186/204/184 187/207/187
f 165/199/181 164/197/179 179/206/186 180/208/188
f 173/200/182 172/198/180 187/207/187 188/209/189
f 166/186/168 165/199/181 180/208/188 181/210/190
f 159/188/170 1/211/24 174/212/191
f 8/213/26 173/200/182 188/209/189
f 167/187/169 166/186/168 181/210/190 182/214/192
f 160/189/171 159/188/170 174/212/191 175/215/193
f 168/190/172 167/187/169 182/214/192 183/216/194
f 161/191/173 160/189/171 175/215/193 176/217/195
f 169/192/174 168/190/172 183/216/194 184/218/196
f 162/193/175 161/191/173 176/217/195 177/219/197
f 170/194/176 169/192/174 184/218/196 185/203/183
f 163/195/177 162/193/175 177/219/197 178/205/185
f 183/216/194 182/214/192 197/220/198 198/221/199
f 176/217/195 175/215/193 190/222/200 191/223/201
f 184/218/196 183/216/194 198/221/199 199/224/202
f 177/219/197 176/217/195 191/223/201 192/225/203
f 185/203/183 184/218/196 199/224/202 200/226/204
f 178/205/185 177/219/197 192/225/203 193/227/205
f 186/204/184 185/203/183 200/226/204 201/228/206
f 179/206/186 178/205/185 193/227/205 194/229/207
f 187/207/187 186/204/184 201/228/206 202/230/208
f 180/208/188 179/206/186 194/229/207 195/231/209
f 188/209/189 187/207/187 202/230/208 203/232/210
f 181/210/190 180/208/188 195/231/209 196/233/211
f 174/212/191 1/234/24 189/235/212
f 8/236/26 188/209/189 203/232/210
f 182/214/192 181/210/190 196/233/211 197/220/198
f 175/215/193 174/212/191 189/235/212 190/222/200
f 202/230/208 201/228/206 216/237/213 217/238/214
f 195/231/209 194/229/207 209/239/215 210/240/216
f 203/232/210 202/230/208 217/238/214 218/241/217
f 196/233/211 195/231/209 210/240/216 211/242/218
f 189/235/212 1/243/24 204/244/219
f 8/245/26 203/232/210 218/241/217
f 197/220/198 196/233/211 211/242/218 212/246/220
f 190/222/200 189/235/212 204/244/219 205/247/221
f 198/221/199 197/220/198 212/246/220 213/248/222
f 191/223/201 190/222/200 205/247/221 206/249/223
f 199/224/202 198/221/199 213/248/222 214/250/224
f 192/225/203 191/223/201 206/249/223 207/251/225
f 200/226/204 199/224/202 214/250/224 215/252/226
f 193/227/205 192/225/203 207/251/225 208/253/227
f 201/228/206 200/226/204 215/252/226 216/237/213
f 194/229/207 193/227/205 208/253/227 209/239/215
f 206/249/223 205/247/221 220/254/228 221/255/229
f 214/250/224 213/248/222 228/256/230 229/257/231
f 207/251/225 206/249/223 221/255/229 222/258/232
f 215/252/226 214/250/224 229/257/231 230/259/233
f 208/253/227 207/251/225 222/258/232 223/260/234
f 216/237/213 215/252/226 230/259/233 231/261/235
f 209/239/215 208/253/227 223/260/234 224/262/236
f 217/238/214 216/237/213 231/261/235 232/263/237
f 210/240/216 209/239/215 224/262/236 225/264/238
f 218/241/217 217/238/214 232/263/237 233/265/239
f 211/242/218 210/240/216 225/264/238 226/266/240
f 204/244/219 1/267/24 219/268/241
f 8/269/26 218/241/217 233/265/239
f 212/246/220 211/242/218 226/266/240 227/270/242
f 205/247/221 204/244/219 219/268/241 220/254/228
f 213/248/222 212/246/220 227/270/242 228/256/230
f 225/264/238 224/262/236 239/271/243 240/272/244
f 233/265/239 232/263/237 247/273/245 248/274/246
f 226/266/240 225/264/238 240/272/244 241/275/247
f 219/268/241 1/276/24 234/277/248
f 8/278/26 233/265/239 248/274/246
f 227/270/242 226/266/240 241/275/247 242/279/249
f 220/254/228 219/268/241 234/277/248 235/280/250
f 228/256/230 227/270/242 242/279/249 243/281/251
f 221/255/229 220/254/228 235/280/250 236/282/252
f 229/257/231 228/256/230 243/281/251 244/283/253
f 222/258/232 221/255/229 236/282/252 237/284/254
f 230/259/233 229/257/231 244/283/253 245/285/255
f 223/260/234 222/258/232 237/284/254 238/286/256
f 231/261/235 230/259/233 245/285/255 246/287/257
f 224/262/236 223/260/234 238/286/256 239/271/243
f 232/263/237 231/261/235 246/287/257 247/273/245
f 244/283/253 243/281/251 258/288/258 259/289/259
f 237/284/254 236/282/252 251/290/260 252/291/261
f 245/285/255 244/283/253 259/289/259 260/292/262
f 238/286/256 237/284/254 252/291/261 253/293/263
f 246/287/257 245/285/255 260/292/262 261/294/264
f 239/271/243 238/286/256 253/293/263 254/295/265
f 247/273/245 246/287/257 261/294/264 262/296/266
f 240/272/244 239/271/243 254/295/265 255/297/267
f 248/274/246 247/273/245 262/296/266 263/298/268
f 241/275/247 240/272/244 255/297/267 256/299/269
f 234/277/248 1/300/24 249/301/270
f 8/302/26 248/274/246 263/298/268
f 242/279/249 241/275/247 256/299/269 257/303/271
f 235/280/250 234/277/248 249/301/270 250/304/272
f 243/281/251 242/279/249 257/303/271 258/288/258
f 236/282/252 235/280/250 250/304/272 251/290/260
f 263/298/268 262/296/266 277/305/273 278/306/274
f 256/299/269 255/297/267 270/307/275 271/308/276
f 249/301/270 1/309/24 264/310/277
f 8/311/26 263/298/268 278/306/274
f 257/303/271 256/299/269 271/308/276 272/312/278
f 250/304/272 249/301/270 264/310/277 265/313/279
f 258/288/258 257/303/271 272/312/278 273/314/280
f 251/290/260 250/304/272 265/313/279 266/315/281
f 259/289/259 258/288/258 273/314/280 274/316/282
f 252/291/261 251/290/260 266/315/281 267/317/283
f 260/292/262 259/289/259 274/316/282 275/318/284
f 253/293/263 252/291/261 267/317/283 268/319/285
f 261/294/264 260/292/262 275/318/284 276/320/286
f 254/295/265 253/293/263 268/319/285 269/321/287
f 262/296/266 261/294/264 276/320/286 277/305/273
f 255/297/267 254/295/265 269/321/287 270/307/275
f 267/317/283 266/315/281 281/322/288 282/323/289
f 275/318/284 274/316/282 289/324/290 290/325/291
f 268/319/285 267/317/283 282/323/289 283/326/292
f 276/320/286 275/318/284 290/325/291 291/327/293
f 269/321/287 268/319/285 283/326/292 284/328/294
f 277/305/273 276/320/286 291/327/293 292/329/295
f 270/307/275 269/321/287 284/328/294 285/330/296
f 278/306/274 277/305/273 292/329/295 293/331/297
f 271/308/276 270/307/275 285/330/296 286/332/298
f 264/310/277 1/333/24 279/334/299
f 8/335/26 278/306/274 293/331/297
f 272/312/278 271/308/276 286/332/298 287/336/300
f 265/313/279 264/310/277 279/334/299 280/337/301
f 273/314/280 272/312/278 287/336/300 288/338/302
f 266/315/281 265/313/279 280/337/301 281/322/288
f 274/316/282 273/314/280 288/338/302 289/324/290
f 286/332/298 285/330/296 300/339/303 301/340/304
f 279/334/299 1/341/24 294/342/305
f 8/343/26 293/331/297 308/344/306
f 287/336/300 286/332/298 301/340/304 302/345/307
f 280/337/301 279/334/299 294/342/305 295/346/308
f 288/338/302 287/336/300 302/345/307 303/347/309
f 281/322/288 280/337/301 295/346/308 296/348/310
f 289/324/290 288/338/302 303/347/309 304/349/311
f 282/323/289 281/322/288 296/348/310 297/350/312
f 290/325/291 289/324/290 304/349/311 305/351/313
f 283/326/292 282/323/289 297/350/312 298/352/314
f 291/327/293 290/325/291 305/351/313 306/353/315
f 284/328/294 283/326/292 298/352/314 299/354/316
f 292/329/295 291/327/293 306/353/315 307/355/317
f 285/330/296 284/328/294 299/354/316 300/339/303
f 293/331/297 292/329/295 307/355/317 308/344/306
f 305/351/313 304/349/311 319/356/318 320/357/319
f 298/352/314 297/350/312 312/358/320 313/359/321
f 306/353/315 305/351/313 320/357/319 321/360/322
f 299/354/316 298/352/314 313/359/321 314/361/323
f 307/355/317 306/353/315 321/360/322 322/362/324
f 300/339/303 299/354/316 314/361/323 315/363/325
f 308/344/306 307/355/317 322/362/324 323/364/326
f 301/340/304 300/339/303 315/363/325 316/365/327
f 294/342/305 1/366/24 309/367/328
f 8/368/26 308/344/306 323/364/326
f 302/345/307 301/340/304 316/365/327 317/369/329
f 295/346/308 294/342/305 309/367/328 310/370/330
f 303/347/309 302/345/307 317/369/329 318/371/331
f 296/348/310 295/346/308 310/370/330 311/372/332
f 304/349/311 303/347/309 318/371/331 319/356/318
f 297/350/312 296/348/310 311/372/332 312/358/320
f 8/373/26 323/364/326 338/374/333
f 317/369/329 316/365/327 331/375/334 332/376/335
f 310/370/330 309/367/328 324/377/336 325/378/337
f 318/371/331 317/369/329 332/376/335 333/379/338
f 311/372/332 310/370/330 325/378/337 326/380/339
f 319/356/318 318/371/331 333/379/338 334/381/340
f 312/358/320 311/372/332 326/380/339 327/382/341
f 320/357/319 319/356/318 334/381/340 335/383/342
f 313/359/321 312/358/320 327/382/341 328/384/343
f 321/360/322 320/357/319 335/383/342 336/385/344
f 314/361/323 313/359/321 328/384/343 329/386/345
f 322/362/324 321/360/322 336/385/344 337/387/346
f 315/363/325 314/361/323 329/386/345 330/388/347
f 323/364/326 322/362/324 337/387/346 338/374/333
f 316/365/327 315/363/325 330/388/347 331/375/334
f 309/367/328 1/389/24 324/377/336
f 336/385/344 335/383/342 350/390/348 351/391/349
f 329/386/345 328/384/343 343/392/350 344/393/351
f 337/387/346 336/385/344 351/391/349 352/394/352
f 330/388/347 329/386/345 344/393/351 345/395/353
f 338/374/333 337/387/346 352/394/352 353/396/354
f 331/375/334 330/388/347 345/395/353 346/397/355
f 324/377/336 1/398/24 339/399/356
f 8/400/26 338/374/333 353/396/354
f 332/376/335 331/375/334 346/397/355 347/401/357
f 325/378/337 324/377/336 339/399/356 340/402/358
f 333/379/338 332/376/335 347/401/357 348/403/359
f 326/380/339 325/378/337 340/402/358 341/404/360
f 334/381/340 333/379/338 348/403/359 349/405/361
f 327/382/341 326/380/339 341/404/360 342/406/362
f 335/383/342 334/381/340 349/405/361 350/390/348
f 328/384/343 327/382/341 342/406/362 343/392/350
f 340/402/358 339/399/356 354/407/363 355/408/364
f 348/403/359 347/401/357 362/409/365 363/410/366
f 341/404/360 340/402/358 355/408/364 356/411/367
f 349/405/361 348/403/359 363/410/366 364/412/368
f 342/406/362 341/404/360 356/411/367 357/413/369
f 350/390/348 349/405/361 364/412/368 365/414/370
f 343/392/350 342/406/362 357/413/369 358/415/371
f 351/391/349 350/390/348 365/414/370 366/416/372
f 344/393/351 343/392/350 358/415/371 359/417/373
f 352/394/352 351/391/349 366/416/372 367/418/374
f 345/395/353 344/393/351 359/417/373 360/419/375
f 353/396/354 352/394/352 367/418/374 368/420/376
f 346/397/355 345/395/353 360/419/375 361/421/377
f 339/399/356 1/422/24 354/407/363
f 8/423/26 353/396/354 368/420/376
f 347/401/357 346/397/355 361/421/377 362/409/365
f 359/424/373 358/425/371 373/426/378 374/427/379
f 367/428/374 366/429/372 381/430/380 382/431/381
f 360/432/375 359/424/373 374/427/379 375/433/382
f 368/434/376 367/428/374 382/431/381 383/435/383
f 361/436/377 360/432/375 375/433/382 376/437/384
f 354/438/363 1/439/24 369/440/385
f 8/441/26 368/434/376 383/435/383
f 362/442/365 361/436/377 376/437/384 377/443/386
f 355/444/364 354/438/363 369/440/385 370/445/387
f 363/446/366 362/442/365 377/443/386 378/447/388
f 356/448/367 355/444/364 370/445/387 371/449/389
f 364/450/368 363/446/366 378/447/388 379/451/390
f 357/452/369 356/448/367 371/449/389 372/453/391
f 365/454/370 364/450/368 379/451/390 380/455/392
f 358/425/371 357/452/369 372/453/391 373/426/378
f 366/429/372 365/454/370 380/455/392 381/430/380
f 378/447/388 377/443/386 392/456/393 393/457/394
f 371/449/389 370/445/387 385/458/395 386/459/396
f 379/451/390 378/447/388 393/457/394 394/460/397
f 372/453/391 371/449/389 386/459/396 387/461/398
f 380/455/392 379/451/390 394/460/397 395/462/399
f 373/426/378 372/453/391 387/461/398 388/463/400
f 381/430/380 380/455/392 395/462/399 396/464/401
f 374/427/379 373/426/378 388/463/400 389/465/402
f 382/431/381 381/430/380 396/464/401 397/466/403
f 375/433/382 374/427/379 389/465/402 390/467/404
f 383/435/383 382/431/381 397/466/403 398/468/405
f 376/437/384 375/433/382 390/467/404 391/469/406
f 369/440/385 1/470/24 384/471/407
f 8/472/26 383/435/383 398/468/405
f 377/443/386 376/437/384 391/469/406 392/456/393
f 370/445/387 369/440/385 384/471/407 385/458/395
f 397/466/403 396/464/401 411/473/408 412/474/409
f 390/467/404 389/465/402 404/475/410 405/476/411
f 398/468/405 397/466/403 412/474/409 413/477/412
f 391/469/406 390/467/404 405/476/411 406/478/413
f 384/471/407 1/479/24 399/480/414
f 8/481/26 398/468/405 413/477/412
f 392/456/393 391/469/406 406/478/413 407/482/415
f 385/458/395 384/471/407 399/480/414 400/483/416
f 393/457/394 392/456/393 407/482/415 408/484/417
f 386/459/396 385/458/395 400/483/416 401/485/418
f 394/460/397 393/457/394 408/484/417 409/486/419
f 387/461/398 386/459/396 401/485/418 402/487/420
f 395/462/399 394/460/397 409/486/419 410/488/421
f 388/463/400 387/461/398 402/487/420 403/489/422
f 396/464/401 395/462/399 410/488/421 411/473/408
f 389/465/402 388/463/400 403/489/422 404/475/410
f 401/485/418 400/483/416 415/490/423 416/491/424
f 409/486/419 408/484/417 423/492/425 424/493/426
f 402/487/420 401/485/418 416/491/424 417/494/427
f 410/488/421 409/486/419 424/493/426 425/495/428
f 403/489/422 402/487/420 417/494/427 418/496/429
f 411/473/408 410/488/421 425/495/428 426/497/430
f 404/475/410 403/489/422 418/496/429 419/498/431
f 412/474/409 411/473/408 426/497/430 427/499/432
f 405/476/411 404/475/410 419/498/431 420/500/433
f 413/477/412 412/474/409 427/499/432 428/501/434
f 406/478/413 405/476/411 420/500/433 421/502/435
f 399/480/414 1/503/24 414/504/436
f 8/505/26 413/477/412 428/501/434
f 407/482/415 406/478/413 421/502/435 422/506/437
f 400/483/416 399/480/414 414/504/436 415/490/423
f 408/484/417 407/482/415 422/506/437 423/492/425
f 420/500/433 419/498/431 434/507/438 435/508/439
f 428/501/434 427/499/432 442/509/440 443/510/441
f 421/502/435 420/500/433 435/508/439 436/511/442
f 414/504/436 1/512/24 429/513/443
f 8/514/26 428/501/434 443/510/441
f 422/506/437 421/502/435 436/511/442 437/515/444
f 415/490/423 414/504/436 429/513/443 430/516/445
f 423/492/425 422/506/437 437/515/444 438/517/446
f 416/491/424 415/490/423 430/516/445 431/518/447
f 424/493/426 423/492/425 438/517/446 439/519/448
f 417/494/427 416/491/424 431/518/447 432/520/449
f 425/495/428 424/493/426 439/519/448 440/521/450
f 418/496/429 417/494/427 432/520/449 433/522/451
f 426/497/430 425/495/428 440/521/450 441/523/452
f 419/498/431 418/496/429 433/522/451 434/507/438
f 427/499/432 426/497/430 441/523/452 442/509/440
f 439/519/448 438/517/446 453/524/453 454/525/454
f 432/520/449 431/518/447 446/526/455 447/527/456
f 440/521/450 439/519/448 454/525/454 455/528/457
f 433/522/451 432/520/449 447/527/456 448/529/458
f 441/523/452 440/521/450 455/528/457 456/530/459
f 434/507/438 433/522/451 448/529/458 449/531/460
f 442/509/440 441/523/452 456/530/459 457/532/461
f 435/508/439 434/507/438 449/531/460 450/533/462
f 443/510/441 442/509/440 457/532/461 458/534/463
f 436/511/442 435/508/439 450/533/462 451/535/464
f 429/513/443 1/536/24 444/537/465
f 8/538/26 443/510/441 458/534/463
f 437/515/444 436/511/442 451/535/464 452/539/466
f 430/516/445 429/513/443 444/537/465 445/540/467
f 438/517/446 437/515/444 452/539/466 453/524/453
f 431/518/447 430/516/445 445/540/467 446/526/455
f 458/534/463 457/532/461 472/541/468 473/542/469
f 451/535/464 450/533/462 465/543/470 466/544/471
f 444/537/465 1/545/24 459/546/472
f 8/547/26 458/534/463 473/542/469
f 452/539/466 451/535/464 466/544/471 467/548/473
f 445/540/467 444/537/465 459/546/472 460/549/474
f 453/524/453 452/539/466 467/548/473 468/550/475
f 446/526/455 445/540/467 460/549/474 461/551/476
f 454/525/454 453/524/453 468/550/475 469/552/477
f 447/527/456 446/526/455 461/551/476 462/553/478
f 455/528/457 454/525/454 469/552/477 470/554/479
f 448/529/458 447/527/456 462/553/478 463/555/480
f 456/530/459 455/528/457 470/554/479 471/556/481
f 449/531/460 448/529/458 463/555/480 464/557/482
f 457/532/461 456/530/459 471/556/481 472/541/468
f 450/533/462 449/531/460 464/557/482 465/543/470
f 470/554/479 469/552/477 7/6/6 479/5/5
f 463/555/480 462/553/478 476/1/1 3/9/9
f 471/556/481 470/554/479 479/5/5 480/11/11
f 464/557/482 463/555/480 3/9/9 477/13/13
f 472/541/468 471/556/481 480/11/11 481/15/15
f 465/543/470 464/557/482 477/13/13 4/17/17
f 473/542/469 472/541/468 481/15/15 482/19/19
f 466/544/471 465/543/470 4/17/17 5/21/21
f 459/546/472 1/558/24 474/23/23
f 8/559/26 473/542/469 482/19/19
f 467/548/473 466/544/471 5/21/21 6/27/27
f 460/549/474 459/546/472 474/23/23 475/29/29
f 468/550/475 467/548/473 6/27/27 478/31/31
f 461/551/476 460/549/474 475/29/29 2/2/2
f 469/552/477 468/550/475 478/31/31 7/6/6
f 462/553/478 461/551/476 2/2/2 476/1/1
s 0
f 483/560/377 484/561/377 486/71/377 485/203/377
f 485/203/21 486/71/21 490/78/21 489/210/21
f 489/210/132 490/78/132 488/70/132 487/219/132
f 487/219/247 488/70/247 484/562/247 483/563/247
f 485/340/26 489/210/26 487/219/26 483/350/26
f 490/78/24 486/502/24 484/494/24 488/70/24
